<svg width="32" height="32" viewBox="0 0 32 32" fill="none" xmlns="http://www.w3.org/2000/svg">
<rect width="32" height="32" fill="black"/>
<path d="M10.7688 9C14.5072 9 17.5374 12.1211 17.5374 15.9709C17.5374 19.8207 14.5069 22.9415 10.7688 22.9415C7.03073 22.9415 4 19.8207 4 15.9709C4 12.1211 7.0305 9 10.7688 9ZM21.5782 9.40834C23.4474 9.40834 24.9626 12.3462 24.9626 15.9709H24.9628C24.9628 19.5946 23.4476 22.5334 21.5784 22.5334C19.7092 22.5334 18.194 19.5946 18.194 15.9709C18.194 12.3471 19.709 9.40834 21.5782 9.40834ZM26.8097 10.0919C27.4669 10.0919 28 12.724 28 15.9709C28 19.2169 27.4672 21.8499 26.8097 21.8499C26.1522 21.8499 25.6196 19.2176 25.6196 15.9709C25.6196 12.7242 26.1524 10.0919 26.8097 10.0919Z" fill="white"/>
</svg>
