<svg width="20" height="22" viewBox="0 0 20 22" fill="none" xmlns="http://www.w3.org/2000/svg">
<path d="M19.9893 5.5085C18.6881 5.5085 17.4876 5.09192 16.5235 4.38916C15.4178 3.58354 14.6234 2.40179 14.3429 1.03973C14.2734 0.703194 14.236 0.355901 14.2325 0H10.5156V9.81546L10.5111 15.1918C10.5111 16.6292 9.54259 17.848 8.20002 18.2766C7.81039 18.401 7.38958 18.4599 6.95141 18.4367C6.39212 18.407 5.868 18.2439 5.41246 17.9805C4.44305 17.4202 3.78579 16.4037 3.76798 15.2409C3.73993 13.4235 5.26017 11.9418 7.13933 11.9418C7.51026 11.9418 7.8665 12.0004 8.20002 12.1066V9.42384V8.45942C7.84824 8.40907 7.49022 8.38282 7.12819 8.38282C5.07137 8.38282 3.14768 9.20909 1.77261 10.6977C0.733284 11.8226 0.109868 13.2578 0.0136837 14.7628C-0.112335 16.7398 0.636209 18.6192 2.08788 20.0058C2.30117 20.2093 2.52516 20.3982 2.75938 20.5725C4.00399 21.4982 5.52557 22 7.12819 22C7.49022 22 7.84824 21.9742 8.20002 21.9238C9.69711 21.7095 11.0784 21.0472 12.1685 20.0058C13.508 18.7263 14.248 17.0277 14.2561 15.2198L14.2369 7.19117C14.8759 7.66757 15.5746 8.06178 16.3245 8.36775C17.4907 8.84329 18.7273 9.08429 19.9999 9.08386V6.4755V5.50764C20.0008 5.5085 19.9902 5.5085 19.9893 5.5085Z" fill="#191B1B"/>
</svg>
