<svg width="32" height="32" viewBox="0 0 32 32" fill="none" xmlns="http://www.w3.org/2000/svg">
<rect width="32" height="32" fill="black"/>
<path fill-rule="evenodd" clip-rule="evenodd" d="M25.5 10.9268C24.582 10.7733 23.7373 10.4097 23.0234 9.88916C22.5908 9.57367 22.2051 9.19983 21.8799 8.78076C20.8496 7.97931 20.1103 6.84192 19.8428 5.53973C19.8398 5.52649 19.8379 5.51324 19.8349 5.5H17.0156V15.3154L17.0107 20.6918C17.0107 22.1292 16.043 23.348 14.7002 23.7766C14.3105 23.9009 13.8896 23.9599 13.4512 23.9367C12.8926 23.907 12.3681 23.7439 11.9121 23.4805C11.4472 23.2116 11.0537 22.8376 10.7685 22.3928C9.87889 21.8179 9.28514 20.8454 9.26756 19.7409C9.24022 17.9235 10.7597 16.4418 12.6396 16.4418C12.7773 16.4418 12.9121 16.4498 13.0449 16.4653C13.2715 16.4917 13.4902 16.5397 13.7002 16.6066V13.9238V13.8832C13.6758 13.8829 13.6523 13.8828 13.6279 13.8828C11.5713 13.8828 9.64744 14.7091 8.27244 16.1977C7.23338 17.3226 6.61034 18.7578 6.51366 20.2628C6.40623 21.9509 6.93553 23.5677 7.99705 24.8674C8.08299 24.9379 8.17088 25.0063 8.25975 25.0725C9.50389 25.9982 11.0254 26.5 12.6279 26.5C12.9902 26.5 13.3486 26.4742 13.7002 26.4238C15.1972 26.2095 16.5781 25.5472 17.6689 24.5057C19.0078 23.2263 19.748 21.5277 19.7558 19.7198L19.7373 11.6912C20.376 12.1676 21.0742 12.5618 21.8242 12.8677C22.9902 13.3433 24.2275 13.5843 25.5 13.5839V10.9755V10.9268Z" fill="white"/>
<path fill-rule="evenodd" clip-rule="evenodd" d="M22.0234 8.88916C22.9873 9.59192 24.1885 10.0085 25.4893 10.0085L25.5 10.0076V10.9268C24.582 10.7733 23.7373 10.4097 23.0234 9.88916C22.5908 9.57367 22.2051 9.19983 21.8799 8.78076C21.9277 8.81763 21.9746 8.85376 22.0234 8.88916ZM19.835 5.5H20.7324C20.7363 5.8559 20.7734 6.20319 20.8428 6.53973C21.0137 7.36841 21.374 8.12964 21.8799 8.78076C20.8496 7.97931 20.1104 6.84192 19.8428 5.53973C19.8399 5.52649 19.8379 5.51324 19.835 5.5ZM10.7686 22.3928C10.8154 22.4232 10.8633 22.4525 10.9121 22.4805C11.3682 22.7439 11.8926 22.907 12.4512 22.9367C12.8897 22.9599 13.3106 22.9009 13.7002 22.7766C15.043 22.348 16.0108 21.1292 16.0108 19.6918L16.0156 14.3154V4.5H19.7324C19.7363 4.84192 19.7705 5.17584 19.835 5.5H17.0156V15.3154L17.0108 20.6918C17.0108 22.1292 16.043 23.348 14.7002 23.7766C14.3106 23.9009 13.8897 23.9599 13.4512 23.9367C12.8926 23.907 12.3682 23.7439 11.9121 23.4805C11.4473 23.2116 11.0537 22.8376 10.7686 22.3928ZM13.7002 13.8832C14.0381 13.8864 14.3721 13.9124 14.7002 13.9594V14.9238V17.6066C14.3662 17.5004 14.0108 17.4418 13.6397 17.4418C11.7598 17.4418 10.2402 18.9235 10.2676 20.7409C10.2774 21.3456 10.459 21.9108 10.7686 22.3928C9.87892 21.8179 9.28517 20.8454 9.26759 19.7409C9.24024 17.9235 10.7598 16.4418 12.6397 16.4418C13.0108 16.4418 13.3662 16.5004 13.7002 16.6066V13.9238V13.8832ZM13.7002 13.8832C13.6758 13.8829 13.6524 13.8828 13.6279 13.8828C11.5713 13.8828 9.64747 14.7091 8.27247 16.1977C7.23341 17.3226 6.61036 18.7578 6.51368 20.2628C6.40626 21.9509 6.93556 23.5677 7.99708 24.8674C7.85646 24.7525 7.71974 24.6319 7.5879 24.5057C6.13575 23.1191 5.38771 21.2398 5.51368 19.2628C5.61036 17.7578 6.23341 16.3226 7.27247 15.1977C8.64747 13.7091 10.5713 12.8828 12.6279 12.8828C12.9902 12.8828 13.3486 12.9091 13.7002 12.9594V13.8832ZM7.99708 24.8674C8.08302 24.9379 8.17091 25.0063 8.25978 25.0725C9.50392 25.9982 11.0254 26.5 12.6279 26.5C12.7598 26.5 12.8906 26.4966 13.0215 26.4898C13.25 26.478 13.4766 26.4559 13.7002 26.4238C15.1973 26.2095 16.5781 25.5472 17.669 24.5057C19.0078 23.2263 19.7481 21.5277 19.7559 19.7198L19.7373 11.6912C20.376 12.1676 21.0742 12.5618 21.8242 12.8677C22.9902 13.3433 24.2276 13.5843 25.5 13.5839V10.9755V10.9268C25.8213 10.9805 26.1524 11.0085 26.4893 11.0085L26.5 11.0076V11.9755V14.5839C25.2276 14.5843 23.9902 14.3433 22.8242 13.8677C22.0742 13.5618 21.376 13.1676 20.7373 12.6912L20.7559 20.7198C20.7481 22.5277 20.0078 24.2263 18.669 25.5057C17.5781 26.5472 16.1973 27.2095 14.7002 27.4238C14.3486 27.4742 13.9902 27.5 13.6279 27.5C12.0254 27.5 10.5039 26.9982 9.25978 26.0725C9.0254 25.8983 8.80079 25.7093 8.5879 25.5057C8.37599 25.3031 8.17872 25.0899 7.99708 24.8674Z" fill="#25F4EE"/>
<path fill-rule="evenodd" clip-rule="evenodd" d="M19.8349 5.5H20.7324C20.7363 5.8559 20.7734 6.20319 20.8428 6.53973C21.0137 7.36841 21.374 8.12964 21.8799 8.78076C20.8496 7.97931 20.1103 6.84192 19.8428 5.53973C19.8398 5.52649 19.8379 5.51324 19.8349 5.5ZM13.7002 13.8832C14.0381 13.8864 14.3721 13.9124 14.7002 13.9594V14.9238V17.6066C14.3662 17.5004 14.0107 17.4418 13.6396 17.4418C11.7597 17.4418 10.2402 18.9235 10.2676 20.7409C10.2773 21.3456 10.459 21.9108 10.7685 22.3928C9.87889 21.8179 9.28514 20.8454 9.26756 19.7409C9.24022 17.9235 10.7597 16.4418 12.6396 16.4418C13.0107 16.4418 13.3662 16.5004 13.7002 16.6066V13.9238V13.8832ZM7.99705 24.8674C8.08299 24.9379 8.17088 25.0063 8.25975 25.0725C9.50389 25.9982 11.0254 26.5 12.6279 26.5C12.7597 26.5 12.8906 26.4966 13.0215 26.4898C13.25 26.478 13.4765 26.4559 13.7002 26.4238C15.1972 26.2095 16.5781 25.5472 17.6689 24.5057C19.0078 23.2263 19.748 21.5277 19.7558 19.7198L19.7373 11.6912C20.376 12.1676 21.0742 12.5618 21.8242 12.8677C22.9902 13.3433 24.2275 13.5843 25.5 13.5839V10.9755V10.9268C25.8213 10.9805 26.1523 11.0085 26.4892 11.0085L26.5 11.0076V11.9755V14.5839C25.2275 14.5843 23.9902 14.3433 22.8242 13.8677C22.0742 13.5618 21.376 13.1676 20.7373 12.6912L20.7558 20.7198C20.748 22.5277 20.0078 24.2263 18.6689 25.5057C17.5781 26.5472 16.1972 27.2095 14.7002 27.4238C14.3486 27.4742 13.9902 27.5 13.6279 27.5C12.0254 27.5 10.5039 26.9982 9.25975 26.0725C9.02537 25.8983 8.80077 25.7093 8.58787 25.5057C8.37596 25.3031 8.17869 25.0899 7.99705 24.8674Z" fill="#FE2C55"/>
</svg>
