<svg width="14" height="16" viewBox="0 0 14 16" fill="none" xmlns="http://www.w3.org/2000/svg">
<path d="M7.67956 1.39255C8.73763 0.00699894 10.2086 0.000244141 10.2086 0.000244141C10.2086 0.000244141 10.4274 1.3029 9.37627 2.55776C8.25391 3.89768 6.97819 3.67843 6.97819 3.67843C6.97819 3.67843 6.73865 2.62463 7.67956 1.39255ZM7.11277 4.59093C7.6571 4.59093 8.66734 3.84754 9.98232 3.84754C12.2458 3.84754 13.1363 5.44774 13.1363 5.44774C13.1363 5.44774 11.3947 6.33241 11.3947 8.47901C11.3947 10.9006 13.5642 11.7351 13.5642 11.7351C13.5642 11.7351 12.0477 15.9761 9.99917 15.9761C9.05832 15.9761 8.32685 15.3462 7.33551 15.3462C6.32527 15.3462 5.32275 15.9996 4.6698 15.9996C2.79922 15.9997 0.436035 11.9766 0.436035 8.74279C0.436035 5.56115 2.43632 3.89211 4.3125 3.89211C5.53219 3.89211 6.47868 4.59093 7.11277 4.59093Z" fill="white"/>
</svg>
