<svg width="34" height="15" viewBox="0 0 34 15" fill="none" xmlns="http://www.w3.org/2000/svg">
<path d="M6.66789 2.30537C7.05644 1.81938 7.32011 1.16683 7.25057 0.5C6.68178 0.528283 5.98769 0.875248 5.58584 1.36162C5.22502 1.77813 4.90567 2.458 4.98893 3.09687C5.62742 3.15226 6.26532 2.77773 6.66789 2.30537Z" fill="white"/>
<path d="M7.24446 3.22147C6.31721 3.16624 5.52883 3.74773 5.08602 3.74773C4.64297 3.74773 3.96489 3.24931 3.23149 3.26274C2.27692 3.27676 1.39119 3.81648 0.90679 4.67489C-0.0895431 6.39213 0.643858 8.93939 1.61274 10.338C2.08325 11.0299 2.6503 11.7918 3.39747 11.7644C4.10341 11.7367 4.38012 11.3073 5.23823 11.3073C6.09571 11.3073 6.34496 11.7644 7.09225 11.7506C7.86721 11.7367 8.3517 11.0583 8.8222 10.3657C9.36197 9.57692 9.58293 8.81531 9.59683 8.7735C9.58293 8.75965 8.10249 8.19172 8.08876 6.48875C8.07478 5.06283 9.25107 4.38459 9.30643 4.34253C8.64217 3.36008 7.60428 3.24931 7.24446 3.22147Z" fill="white"/>
<path d="M15.3179 1.29199C17.3333 1.29199 18.7366 2.68119 18.7366 4.70376C18.7366 6.73355 17.3044 8.12997 15.2674 8.12997H13.036V11.6785H11.4238V1.29199H15.3179V1.29199ZM13.036 6.77673H14.8859C16.2895 6.77673 17.0884 6.02104 17.0884 4.71098C17.0884 3.40106 16.2895 2.65245 14.8931 2.65245H13.036V6.77673Z" fill="white"/>
<path d="M19.1572 9.52652C19.1572 8.20202 20.1721 7.38872 21.9717 7.28792L24.0446 7.16561V6.58263C24.0446 5.74045 23.4759 5.23661 22.526 5.23661C21.626 5.23661 21.0646 5.66839 20.9279 6.34508H19.4596C19.546 4.9774 20.7119 3.96973 22.5834 3.96973C24.4189 3.96973 25.592 4.94144 25.592 6.46018V11.6786H24.102V10.4334H24.0662C23.6272 11.2756 22.6698 11.8082 21.6766 11.8082C20.1938 11.8082 19.1572 10.8868 19.1572 9.52652ZM24.0446 8.84275V8.24534L22.1803 8.36044C21.2517 8.42527 20.7264 8.83553 20.7264 9.48334C20.7264 10.1455 21.2734 10.5774 22.1083 10.5774C23.1951 10.5774 24.0446 9.82877 24.0446 8.84275Z" fill="white"/>
<path d="M26.9996 14.4642V13.2045C27.1145 13.2333 27.3736 13.2333 27.5033 13.2333C28.223 13.2333 28.6118 12.931 28.8492 12.1537C28.8492 12.1392 28.9861 11.693 28.9861 11.6858L26.251 4.10645H27.9351L29.8499 10.2679H29.8785L31.7933 4.10645H33.4344L30.5982 12.0744C29.9507 13.91 29.2021 14.5002 27.633 14.5002C27.5033 14.5002 27.1145 14.4857 26.9996 14.4642Z" fill="white"/>
</svg>
