<svg width="10" height="11" viewBox="0 0 10 11" fill="none" xmlns="http://www.w3.org/2000/svg">
<path d="M0.860922 5.842C0.823588 5.842 0.804922 5.82333 0.804922 5.786V4.204C0.804922 4.16667 0.823588 4.148 0.860922 4.148H2.44292C2.48026 4.148 2.49892 4.16667 2.49892 4.204V5.786C2.49892 5.82333 2.48026 5.842 2.44292 5.842H0.860922ZM0.860922 10C0.823588 10 0.804922 9.98133 0.804922 9.944V8.362C0.804922 8.32467 0.823588 8.306 0.860922 8.306H2.44292C2.48026 8.306 2.49892 8.32467 2.49892 8.362V9.944C2.49892 9.98133 2.48026 10 2.44292 10H0.860922ZM9.12267 10.14H8.36667C7.88134 10.1213 7.43801 9.986 7.03667 9.734C6.63534 9.47267 6.31334 9.132 6.07067 8.712C5.828 8.292 5.70667 7.83 5.70667 7.326L5.72067 2.888C5.72067 2.39333 5.83734 1.94067 6.07067 1.53C6.31334 1.11 6.63534 0.773999 7.03667 0.521999C7.43801 0.260666 7.88134 0.120666 8.36667 0.102H8.38067H9.15067C9.19734 0.102 9.22067 0.120666 9.22067 0.158V1.74C9.22067 1.77733 9.19734 1.796 9.15067 1.796H8.35267C8.08201 1.796 7.85334 1.90333 7.66667 2.118C7.48 2.33267 7.38667 2.58933 7.38667 2.888V7.326C7.38667 7.61533 7.48 7.86733 7.66667 8.082C7.86267 8.29667 8.09134 8.418 8.35267 8.446H9.10867C9.15534 8.446 9.17867 8.46467 9.17867 8.502L9.19267 10.084C9.19267 10.1213 9.16934 10.14 9.12267 10.14Z" fill="white"/>
</svg>
