<svg width="35" height="24" viewBox="0 0 35 24" fill="none" xmlns="http://www.w3.org/2000/svg">
<rect width="35" height="24" fill="white" fill-opacity="0.05"/>
<path d="M33.0347 16C33.0347 16 24.911 20.1424 10.0347 22H33.0347V16Z" fill="#F48120"/>
<path d="M4.34488 9.63574H3.03467V14.2962H4.34488C5.03754 14.2962 5.53826 14.1267 5.98056 13.7624C6.50632 13.3217 6.81509 12.6608 6.81509 11.9744C6.80675 10.5933 5.79697 9.63574 4.34488 9.63574ZM5.39639 13.1438C5.11265 13.398 4.7538 13.5166 4.16963 13.5166H3.92762V10.4323H4.16963C4.74546 10.4323 5.09596 10.5339 5.39639 10.8051C5.70517 11.0847 5.88876 11.5169 5.88876 11.966C5.88876 12.4151 5.70517 12.8642 5.39639 13.1438Z" fill="white"/>
<path d="M8.11658 9.63574H7.22363V14.2962H8.11658V9.63574Z" fill="white"/>
<path d="M10.3034 11.4236C9.76929 11.2202 9.61073 11.0846 9.61073 10.8389C9.61073 10.5423 9.89447 10.322 10.2784 10.322C10.5454 10.322 10.7707 10.4322 10.996 10.7033L11.4634 10.0848C11.0795 9.74582 10.6205 9.56787 10.1114 9.56787C9.30195 9.56787 8.67605 10.1441 8.67605 10.9067C8.67605 11.5507 8.96814 11.8812 9.80267 12.1862C10.1532 12.3133 10.3284 12.398 10.4202 12.4489C10.5955 12.5675 10.6873 12.737 10.6873 12.9319C10.6873 13.3132 10.3952 13.5928 9.99461 13.5928C9.569 13.5928 9.22684 13.3725 9.01821 12.9743L8.44238 13.542C8.8513 14.1606 9.35202 14.4317 10.028 14.4317C10.9543 14.4317 11.6136 13.8047 11.6136 12.898C11.6303 12.1438 11.3215 11.8049 10.3034 11.4236Z" fill="white"/>
<path d="M11.9058 11.9744C11.9058 13.3472 12.9656 14.4064 14.3259 14.4064C14.7098 14.4064 15.0436 14.3301 15.4442 14.1352V13.0675C15.0853 13.4319 14.7682 13.576 14.3676 13.576C13.4663 13.576 12.8237 12.915 12.8237 11.966C12.8237 11.0678 13.483 10.3645 14.3259 10.3645C14.7515 10.3645 15.077 10.517 15.4442 10.8898V9.82216C15.0519 9.61879 14.7265 9.53406 14.3426 9.53406C12.999 9.53406 11.9058 10.6187 11.9058 11.9744Z" fill="white"/>
<path d="M22.5542 12.771L21.3275 9.63574H20.3511L22.2955 14.4148H22.7796L24.7574 9.63574H23.7893L22.5542 12.771Z" fill="white"/>
<path d="M25.166 14.2962H27.703V13.5082H26.059V12.2541H27.6446V11.466H26.059V10.4323H27.703V9.63574H25.166V14.2962Z" fill="white"/>
<path d="M31.2501 11.0168C31.2501 10.144 30.6576 9.64404 29.6228 9.64404H28.2959V14.3045H29.1888V12.4319H29.3057L30.5408 14.3045H31.6424L30.1986 12.3386C30.8746 12.1946 31.2501 11.7285 31.2501 11.0168ZM29.4476 11.7879H29.1888V10.3728H29.4642C30.0234 10.3728 30.3238 10.61 30.3238 11.0676C30.3238 11.5337 30.0234 11.7879 29.4476 11.7879Z" fill="white"/>
<path d="M18.1898 14.4655C19.5402 14.4655 20.635 13.3539 20.635 11.9828C20.635 10.6116 19.5402 9.5 18.1898 9.5C16.8394 9.5 15.7446 10.6116 15.7446 11.9828C15.7446 13.3539 16.8394 14.4655 18.1898 14.4655Z" fill="url(#paint0_linear)"/>
<path opacity="0.65" d="M18.1898 14.4655C19.5402 14.4655 20.635 13.3539 20.635 11.9828C20.635 10.6116 19.5402 9.5 18.1898 9.5C16.8394 9.5 15.7446 10.6116 15.7446 11.9828C15.7446 13.3539 16.8394 14.4655 18.1898 14.4655Z" fill="url(#paint1_linear)"/>
<path d="M31.8174 9.81387C31.8174 9.72914 31.759 9.68677 31.6672 9.68677H31.5337V10.0935H31.6338V9.9325L31.7507 10.0935H31.8675L31.734 9.92403C31.7841 9.91555 31.8174 9.87319 31.8174 9.81387ZM31.6505 9.87319H31.6338V9.76303H31.6505C31.7006 9.76303 31.7256 9.77998 31.7256 9.81387C31.7256 9.85624 31.7006 9.87319 31.6505 9.87319Z" fill="white"/>
<path d="M31.6845 9.53406C31.4925 9.53406 31.334 9.69506 31.334 9.88995C31.334 10.0848 31.4925 10.2458 31.6845 10.2458C31.8764 10.2458 32.035 10.0848 32.035 9.88995C32.035 9.69506 31.8764 9.53406 31.6845 9.53406ZM31.6845 10.1865C31.5343 10.1865 31.4007 10.0594 31.4007 9.88995C31.4007 9.72895 31.5259 9.59337 31.6845 9.59337C31.8347 9.59337 31.9599 9.72895 31.9599 9.88995C31.9599 10.0509 31.8347 10.1865 31.6845 10.1865Z" fill="white"/>
<defs>
<linearGradient id="paint0_linear" x1="19.4395" y1="13.9696" x2="17.7124" y2="11.3063" gradientUnits="userSpaceOnUse">
<stop stop-color="#F89F20"/>
<stop offset="0.2502" stop-color="#F79A20"/>
<stop offset="0.5331" stop-color="#F68D20"/>
<stop offset="0.6196" stop-color="#F58720"/>
<stop offset="0.7232" stop-color="#F48120"/>
<stop offset="1" stop-color="#F37521"/>
</linearGradient>
<linearGradient id="paint1_linear" x1="19.1727" y1="13.9334" x2="16.6421" y2="9.06204" gradientUnits="userSpaceOnUse">
<stop stop-color="#F58720"/>
<stop offset="0.3587" stop-color="#E16F27"/>
<stop offset="0.703" stop-color="#D4602C"/>
<stop offset="0.9816" stop-color="#D05B2E"/>
</linearGradient>
</defs>
</svg>
