<svg width="16" height="16" viewBox="0 0 16 16" fill="none" xmlns="http://www.w3.org/2000/svg">
<path fill-rule="evenodd" clip-rule="evenodd" d="M11.6563 13.0706L14.2929 15.7072L15.7071 14.293L1.70712 0.292969L0.292908 1.70718L2.64191 4.05618C0.939007 5.43506 0 7.00008 0 7.00008V9.00008C0 9.00008 3 14.0001 8 14.0001C9.37756 14.0001 10.6033 13.6205 11.6563 13.0706ZM9.29343 10.7077L5.29238 6.70665C5.10495 7.09829 5 7.53693 5 8.00008C5 9.65693 6.34315 11.0001 8 11.0001C8.46315 11.0001 8.90179 10.8951 9.29343 10.7077Z" fill="white"/>
<path d="M16 9.00008C16 9.00008 15.7083 9.48622 15.1553 10.1553L7.0595 2.05957C7.36453 2.0208 7.67812 2.00008 8 2.00008C13 2.00008 16 7.00008 16 7.00008V9.00008Z" fill="white"/>
</svg>
