<svg width="24" height="24" viewBox="0 0 24 24" fill="none" xmlns="http://www.w3.org/2000/svg">
<path d="M20.9902 12.1684C20.9902 11.4309 20.9323 10.8928 20.8072 10.3347H12.6685V13.6632H17.4457C17.3494 14.4904 16.8293 15.7361 15.6735 16.5732L15.6573 16.6846L18.2306 18.7472L18.4089 18.7656C20.0462 17.201 20.9902 14.899 20.9902 12.1684Z" fill="#4285F4"/>
<path d="M12.6686 20.9382C15.0091 20.9382 16.9739 20.1409 18.4091 18.7657L15.6737 16.5732C14.9417 17.1014 13.9592 17.4701 12.6686 17.4701C10.3763 17.4701 8.43076 15.9055 7.73722 13.743L7.63556 13.7519L4.9598 15.8945L4.9248 15.9952C6.35027 18.9251 9.27828 20.9382 12.6686 20.9382Z" fill="#34A853"/>
<path d="M7.73703 13.743C7.55403 13.1849 7.44812 12.5869 7.44812 11.9691C7.44812 11.3512 7.55403 10.7533 7.7274 10.1952L7.72255 10.0763L5.01326 7.89929L4.92461 7.94292C4.33711 9.15874 4 10.5241 4 11.9691C4 13.4141 4.33711 14.7793 4.92461 15.9952L7.73703 13.743Z" fill="#FBBC05"/>
<path d="M12.6686 6.46802C14.2963 6.46802 15.3943 7.19551 16.0204 7.80346L18.4668 5.33196C16.9643 3.88695 15.0091 3 12.6686 3C9.27828 3 6.35027 5.01305 4.9248 7.94292L7.72759 10.1952C8.43076 8.03265 10.3763 6.46802 12.6686 6.46802Z" fill="#EB4335"/>
</svg>
