<svg width="16" height="16" viewBox="0 0 16 16" fill="none" xmlns="http://www.w3.org/2000/svg">
<path d="M15.9998 8.17778C15.9998 7.52001 15.9454 7.04001 15.8275 6.54224H8.16309V9.5111H12.6619C12.5713 10.2489 12.0815 11.36 10.993 12.1067L10.9777 12.206L13.4011 14.0458L13.569 14.0623C15.1109 12.6667 15.9998 10.6133 15.9998 8.17778Z" fill="#4285F4"/>
<path d="M8.16317 16.0001C10.3672 16.0001 12.2176 15.2889 13.5691 14.0623L10.9931 12.1067C10.3038 12.5778 9.37856 12.9067 8.16317 12.9067C6.00444 12.9067 4.17225 11.5112 3.51913 9.58228L3.42339 9.59024L0.903559 11.5014L0.870605 11.5911C2.213 14.2045 4.97039 16.0001 8.16317 16.0001Z" fill="#34A853"/>
<path d="M3.51925 9.58242C3.34692 9.08465 3.24718 8.55127 3.24718 8.00019C3.24718 7.44904 3.34692 6.91573 3.51018 6.41795L3.50562 6.31194L0.954208 4.37012L0.87073 4.40903C0.317465 5.49349 0 6.7113 0 8.00019C0 9.28908 0.317465 10.5068 0.87073 11.5913L3.51925 9.58242Z" fill="#FBBC05"/>
<path d="M8.16317 3.09332C9.69603 3.09332 10.73 3.74221 11.3196 4.28447L13.6235 2.08001C12.2085 0.791117 10.3672 0 8.16317 0C4.97039 0 2.213 1.79555 0.870605 4.40887L3.51006 6.41779C4.17225 4.4889 6.00444 3.09332 8.16317 3.09332Z" fill="#EB4335"/>
</svg>
