<svg width="150" height="24" viewBox="0 0 150 24" fill="none" xmlns="http://www.w3.org/2000/svg">
<path d="M48.3582 20.8C47.1734 20.8 46.0994 20.5289 45.1361 19.9867C44.1839 19.4328 43.4309 18.6726 42.8773 17.7061C42.3348 16.7278 42.0635 15.6258 42.0635 14.4C42.0635 13.1742 42.3348 12.0781 42.8773 11.1116C43.4309 10.1333 44.1839 9.37311 45.1361 8.83094C46.0994 8.27698 47.179 8 48.3748 8C49.3824 8 50.2903 8.18858 51.0986 8.56575C51.918 8.94291 52.6045 9.48508 53.1581 10.1923L51.4308 11.8895C50.6447 10.923 49.6703 10.4398 48.5077 10.4398C47.788 10.4398 47.1458 10.6107 46.5811 10.9525C46.0164 11.2825 45.5735 11.7481 45.2524 12.3492C44.9423 12.9503 44.7873 13.6339 44.7873 14.4C44.7873 15.1661 44.9423 15.8497 45.2524 16.4508C45.5735 17.0519 46.0164 17.5234 46.5811 17.8652C47.1458 18.1952 47.788 18.3602 48.5077 18.3602C49.6703 18.3602 50.6447 17.8711 51.4308 16.8928L53.1581 18.5901C52.6045 19.309 51.918 19.8571 51.0986 20.2343C50.2793 20.6114 49.3658 20.8 48.3582 20.8Z" fill="white"/>
<path d="M66.3023 8.21215V20.5878H63.6116V15.5138H58.3301V20.5878H55.6394V8.21215H58.3301V13.0917H63.6116V8.21215H66.3023Z" fill="white"/>
<path d="M77.1248 20.5878L74.8826 17.1403H74.7498H72.4079V20.5878H69.7173V8.21215H74.7498C75.7795 8.21215 76.6708 8.39484 77.4238 8.76022C78.1878 9.1256 78.7746 9.6442 79.1843 10.316C79.594 10.9878 79.7988 11.7834 79.7988 12.7028C79.7988 13.6221 79.5884 14.4177 79.1677 15.0895C78.758 15.7495 78.1712 16.2564 77.4072 16.6099L80.0147 20.5878H77.1248ZM77.075 12.7028C77.075 12.0074 76.8646 11.477 76.4439 11.1116C76.0231 10.7344 75.4086 10.5459 74.6003 10.5459H72.4079V14.8597H74.6003C75.4086 14.8597 76.0231 14.6711 76.4439 14.2939C76.8646 13.9168 77.075 13.3864 77.075 12.7028Z" fill="white"/>
<path d="M88.2253 20.8C87.0184 20.8 85.9278 20.523 84.9534 19.9691C83.9901 19.4151 83.2316 18.6549 82.678 17.6884C82.1354 16.7101 81.8641 15.614 81.8641 14.4C81.8641 13.186 82.1354 12.0958 82.678 11.1293C83.2316 10.151 83.9901 9.3849 84.9534 8.83094C85.9278 8.27698 87.0184 8 88.2253 8C89.4322 8 90.5173 8.27698 91.4806 8.83094C92.4439 9.3849 93.2024 10.151 93.756 11.1293C94.3096 12.0958 94.5865 13.186 94.5865 14.4C94.5865 15.614 94.3096 16.7101 93.756 17.6884C93.2024 18.6549 92.4439 19.4151 91.4806 19.9691C90.5173 20.523 89.4322 20.8 88.2253 20.8ZM88.2253 18.3602C88.9118 18.3602 89.5319 18.1952 90.0855 17.8652C90.6391 17.5234 91.0709 17.0519 91.381 16.4508C91.7021 15.8497 91.8626 15.1661 91.8626 14.4C91.8626 13.6339 91.7021 12.9503 91.381 12.3492C91.0709 11.7481 90.6391 11.2825 90.0855 10.9525C89.5319 10.6107 88.9118 10.4398 88.2253 10.4398C87.5388 10.4398 86.9187 10.6107 86.3651 10.9525C85.8115 11.2825 85.3741 11.7481 85.053 12.3492C84.743 12.9503 84.588 13.6339 84.588 14.4C84.588 15.1661 84.743 15.8497 85.053 16.4508C85.3741 17.0519 85.8115 17.5234 86.3651 17.8652C86.9187 18.1952 87.5388 18.3602 88.2253 18.3602Z" fill="white"/>
<path d="M107.936 8.21215V20.5878H105.727L99.9303 13.074V20.5878H97.2729V8.21215H99.4985L105.278 15.726V8.21215H107.936Z" fill="white"/>
<path d="M111.351 8.21215H114.041V20.5878H111.351V8.21215Z" fill="white"/>
<path d="M123.029 20.8C121.844 20.8 120.77 20.5289 119.807 19.9867C118.854 19.4328 118.102 18.6726 117.548 17.7061C117.005 16.7278 116.734 15.6258 116.734 14.4C116.734 13.1742 117.005 12.0781 117.548 11.1116C118.102 10.1333 118.854 9.37311 119.807 8.83094C120.77 8.27698 121.85 8 123.045 8C124.053 8 124.961 8.18858 125.769 8.56575C126.589 8.94291 127.275 9.48508 127.829 10.1923L126.101 11.8895C125.315 10.923 124.341 10.4398 123.178 10.4398C122.459 10.4398 121.816 10.6107 121.252 10.9525C120.687 11.2825 120.244 11.7481 119.923 12.3492C119.613 12.9503 119.458 13.6339 119.458 14.4C119.458 15.1661 119.613 15.8497 119.923 16.4508C120.244 17.0519 120.687 17.5234 121.252 17.8652C121.816 18.1952 122.459 18.3602 123.178 18.3602C124.341 18.3602 125.315 17.8711 126.101 16.8928L127.829 18.5901C127.275 19.309 126.589 19.8571 125.769 20.2343C124.95 20.6114 124.036 20.8 123.029 20.8Z" fill="white"/>
<path d="M130.31 8.21215H133.001V18.2541H138.83V20.5878H130.31V8.21215Z" fill="white"/>
<path d="M150 18.2895V20.5878H140.998V8.21215H149.784V10.5105H143.672V13.1978H149.07V15.4254H143.672V18.2895H150Z" fill="white"/>
<path d="M25.1462 18.1539L0 4.9231V10.7692L25.1462 24V18.1539Z" fill="#00E1C8"/>
<path d="M8.98075 18.1539L34.127 4.9231V10.7692L8.98075 24V18.1539Z" fill="#00E1C8"/>
<path d="M26.9434 0V4.41154L17.0645 9.53846V5.12692L26.9434 0Z" fill="url(#paint0_linear)"/>
<defs>
<linearGradient id="paint0_linear" x1="17.0645" y1="6.15385" x2="39.2171" y2="6.15385" gradientUnits="userSpaceOnUse">
<stop stop-color="#D06CFF"/>
<stop offset="1" stop-color="#5900B9"/>
</linearGradient>
</defs>
</svg>
