<svg width="150" height="25" viewBox="0 0 150 25" fill="none" xmlns="http://www.w3.org/2000/svg">
<path d="M48.3582 21.3C47.1734 21.3 46.0994 21.0289 45.1361 20.4867C44.1839 19.9328 43.4309 19.1726 42.8773 18.2061C42.3348 17.2278 42.0635 16.1258 42.0635 14.9C42.0635 13.6742 42.3348 12.5781 42.8773 11.6116C43.4309 10.6333 44.1839 9.87311 45.1361 9.33094C46.0994 8.77698 47.179 8.5 48.3748 8.5C49.3824 8.5 50.2903 8.68858 51.0986 9.06575C51.918 9.44291 52.6045 9.98508 53.1581 10.6923L51.4308 12.3895C50.6447 11.423 49.6703 10.9398 48.5077 10.9398C47.788 10.9398 47.1458 11.1107 46.5811 11.4525C46.0164 11.7825 45.5735 12.2481 45.2524 12.8492C44.9423 13.4503 44.7873 14.1339 44.7873 14.9C44.7873 15.6661 44.9423 16.3497 45.2524 16.9508C45.5735 17.5519 46.0164 18.0234 46.5811 18.3652C47.1458 18.6952 47.788 18.8602 48.5077 18.8602C49.6703 18.8602 50.6447 18.3711 51.4308 17.3928L53.1581 19.0901C52.6045 19.809 51.918 20.3571 51.0986 20.7343C50.2793 21.1114 49.3658 21.3 48.3582 21.3Z" fill="white"/>
<path d="M66.3023 8.71215V21.0878H63.6116V16.0138H58.3301V21.0878H55.6394V8.71215H58.3301V13.5917H63.6116V8.71215H66.3023Z" fill="white"/>
<path d="M77.1248 21.0878L74.8826 17.6403H74.7498H72.4079V21.0878H69.7173V8.71215H74.7498C75.7795 8.71215 76.6708 8.89484 77.4238 9.26022C78.1878 9.6256 78.7746 10.1442 79.1843 10.816C79.594 11.4878 79.7988 12.2834 79.7988 13.2028C79.7988 14.1221 79.5884 14.9177 79.1677 15.5895C78.758 16.2495 78.1712 16.7564 77.4072 17.1099L80.0147 21.0878H77.1248ZM77.075 13.2028C77.075 12.5074 76.8646 11.977 76.4439 11.6116C76.0231 11.2344 75.4086 11.0459 74.6003 11.0459H72.4079V15.3597H74.6003C75.4086 15.3597 76.0231 15.1711 76.4439 14.7939C76.8646 14.4168 77.075 13.8864 77.075 13.2028Z" fill="white"/>
<path d="M88.2253 21.3C87.0184 21.3 85.9278 21.023 84.9534 20.4691C83.9901 19.9151 83.2316 19.1549 82.678 18.1884C82.1354 17.2101 81.8641 16.114 81.8641 14.9C81.8641 13.686 82.1354 12.5958 82.678 11.6293C83.2316 10.651 83.9901 9.8849 84.9534 9.33094C85.9278 8.77698 87.0184 8.5 88.2253 8.5C89.4322 8.5 90.5173 8.77698 91.4806 9.33094C92.4439 9.8849 93.2024 10.651 93.756 11.6293C94.3096 12.5958 94.5865 13.686 94.5865 14.9C94.5865 16.114 94.3096 17.2101 93.756 18.1884C93.2024 19.1549 92.4439 19.9151 91.4806 20.4691C90.5173 21.023 89.4322 21.3 88.2253 21.3ZM88.2253 18.8602C88.9118 18.8602 89.5319 18.6952 90.0855 18.3652C90.6391 18.0234 91.0709 17.5519 91.381 16.9508C91.7021 16.3497 91.8626 15.6661 91.8626 14.9C91.8626 14.1339 91.7021 13.4503 91.381 12.8492C91.0709 12.2481 90.6391 11.7825 90.0855 11.4525C89.5319 11.1107 88.9118 10.9398 88.2253 10.9398C87.5388 10.9398 86.9187 11.1107 86.3651 11.4525C85.8115 11.7825 85.3741 12.2481 85.053 12.8492C84.743 13.4503 84.588 14.1339 84.588 14.9C84.588 15.6661 84.743 16.3497 85.053 16.9508C85.3741 17.5519 85.8115 18.0234 86.3651 18.3652C86.9187 18.6952 87.5388 18.8602 88.2253 18.8602Z" fill="white"/>
<path d="M107.936 8.71215V21.0878H105.727L99.9303 13.574V21.0878H97.2729V8.71215H99.4985L105.278 16.226V8.71215H107.936Z" fill="white"/>
<path d="M111.351 8.71215H114.041V21.0878H111.351V8.71215Z" fill="white"/>
<path d="M123.029 21.3C121.844 21.3 120.77 21.0289 119.807 20.4867C118.854 19.9328 118.102 19.1726 117.548 18.2061C117.005 17.2278 116.734 16.1258 116.734 14.9C116.734 13.6742 117.005 12.5781 117.548 11.6116C118.102 10.6333 118.854 9.87311 119.807 9.33094C120.77 8.77698 121.85 8.5 123.045 8.5C124.053 8.5 124.961 8.68858 125.769 9.06575C126.589 9.44291 127.275 9.98508 127.829 10.6923L126.101 12.3895C125.315 11.423 124.341 10.9398 123.178 10.9398C122.459 10.9398 121.816 11.1107 121.252 11.4525C120.687 11.7825 120.244 12.2481 119.923 12.8492C119.613 13.4503 119.458 14.1339 119.458 14.9C119.458 15.6661 119.613 16.3497 119.923 16.9508C120.244 17.5519 120.687 18.0234 121.252 18.3652C121.816 18.6952 122.459 18.8602 123.178 18.8602C124.341 18.8602 125.315 18.3711 126.101 17.3928L127.829 19.0901C127.275 19.809 126.589 20.3571 125.769 20.7343C124.95 21.1114 124.036 21.3 123.029 21.3Z" fill="white"/>
<path d="M130.31 8.71215H133.001V18.7541H138.83V21.0878H130.31V8.71215Z" fill="white"/>
<path d="M150 18.7895V21.0878H140.998V8.71215H149.784V11.0105H143.672V13.6978H149.07V15.9254H143.672V18.7895H150Z" fill="white"/>
<path d="M25.1462 18.6539L0 5.4231V11.2692L25.1462 24.5V18.6539Z" fill="#00E1C8"/>
<path d="M8.9788 18.6536L34.125 5.42285V11.269L8.9788 24.4998V18.6536Z" fill="#00E1C8"/>
<path d="M26.9453 0.5V4.91154L17.0664 10.0385V5.62692L26.9453 0.5Z" fill="url(#paint0_linear)"/>
<defs>
<linearGradient id="paint0_linear" x1="17.0664" y1="6.65385" x2="39.2191" y2="6.65385" gradientUnits="userSpaceOnUse">
<stop stop-color="#D06CFF"/>
<stop offset="1" stop-color="#5900B9"/>
</linearGradient>
</defs>
</svg>
