<svg width="35" height="24" viewBox="0 0 35 24" fill="none" xmlns="http://www.w3.org/2000/svg">
<rect width="35" height="24" fill="white" fill-opacity="0.05"/>
<path d="M20.9146 5.90771H14.1543V18.0937H20.9146V5.90771Z" fill="#FF5F00"/>
<path d="M14.5843 12.0001C14.5832 10.8265 14.8484 9.668 15.3596 8.61238C15.8709 7.55675 16.6148 6.63164 17.5352 5.90706C16.3955 5.00842 15.0266 4.44957 13.5852 4.29438C12.1438 4.1392 10.6879 4.39393 9.38404 5.02948C8.08013 5.66503 6.98078 6.65576 6.21166 7.8884C5.44253 9.12105 5.03467 10.5459 5.03467 12.0001C5.03467 13.4542 5.44253 14.8791 6.21166 16.1117C6.98078 17.3444 8.08013 18.3351 9.38404 18.9707C10.6879 19.6062 12.1438 19.8609 13.5852 19.7058C15.0266 19.5506 16.3955 18.9917 17.5352 18.0931C16.6148 17.3685 15.8709 16.4434 15.3596 15.3878C14.8484 14.3321 14.5832 13.1737 14.5843 12.0001Z" fill="#EB001B"/>
<path d="M30.0348 11.9999C30.0349 13.4541 29.6271 14.8789 28.858 16.1116C28.0889 17.3442 26.9896 18.335 25.6857 18.9705C24.3818 19.6061 22.926 19.8608 21.4846 19.7056C20.0432 19.5504 18.6744 18.9916 17.5347 18.0929C18.4542 17.3676 19.1976 16.4424 19.7088 15.3869C20.22 14.3315 20.4856 13.1734 20.4856 11.9999C20.4856 10.8265 20.22 9.66843 19.7088 8.61297C19.1976 7.55751 18.4542 6.63225 17.5347 5.90694C18.6744 5.0083 20.0432 4.44944 21.4846 4.29426C22.926 4.13908 24.3818 4.39382 25.6857 5.02938C26.9896 5.66493 28.0889 6.65566 28.858 7.8883C29.6271 9.12095 30.0349 10.5458 30.0348 11.9999Z" fill="#F79E1B"/>
</svg>
