<svg width="12" height="12" viewBox="0 0 12 12" fill="none" xmlns="http://www.w3.org/2000/svg">
<path d="M3.15533 3.90533L3.96967 3.09099C4.50815 2.55251 5.23848 2.25 6 2.25C6.76152 2.25 7.49185 2.55251 8.03033 3.09099L8.84467 3.90533L9.90533 2.84467L9.09099 2.03033C8.27121 1.21055 7.15935 0.75 6 0.75C4.84065 0.75 3.72879 1.21055 2.90901 2.03033L2.09467 2.84467L0.75 1.5L0 2.25V5.25L0.750001 6L3.75 6L4.5 5.25L3.15533 3.90533Z" fill="white"/>
<path d="M11.25 6L12 6.75V9.75L11.25 10.5L9.90533 9.15533L9.09099 9.96967C8.27121 10.7895 7.15935 11.25 6 11.25C4.84065 11.25 3.72879 10.7895 2.90901 9.96967L2.09467 9.15533L3.15533 8.09467L3.96967 8.90901C4.50815 9.44749 5.23848 9.75 6 9.75C6.76152 9.75 7.49185 9.44749 8.03033 8.90901L8.84467 8.09467L7.5 6.75L8.25 6L11.25 6Z" fill="white"/>
</svg>
