<svg width="16" height="14" viewBox="0 0 16 14" fill="none" xmlns="http://www.w3.org/2000/svg">
<path d="M4.20711 4.20711L5.29289 3.12132C6.01086 2.40335 6.98464 2 8 2C9.01536 2 9.98914 2.40335 10.7071 3.12132L11.7929 4.20711L13.2071 2.79289L12.1213 1.70711C11.0283 0.614064 9.54579 0 8 0C6.45421 0 4.97172 0.614063 3.87868 1.70711L2.79289 2.79289L1 0.999999L0 2V6L1 7L5 7L6 6L4.20711 4.20711Z" fill="white"/>
<path d="M15 7L16 8V12L15 13L13.2071 11.2071L12.1213 12.2929C11.0283 13.3859 9.54579 14 8 14C6.45421 14 4.97172 13.3859 3.87868 12.2929L2.79289 11.2071L4.20711 9.79289L5.29289 10.8787C6.01086 11.5966 6.98464 12 8 12C9.01536 12 9.98914 11.5967 10.7071 10.8787L11.7929 9.79289L10 8L11 7L15 7Z" fill="white"/>
</svg>
