<svg width="12" height="13" viewBox="0 0 12 13" fill="none" xmlns="http://www.w3.org/2000/svg">
<path fill-rule="evenodd" clip-rule="evenodd" d="M4.08001 1.86474L2.44014 1.57532L1.07532 2.94014L1.36474 4.58001L0 5.5353V7.4647L1.36474 8.41999L1.07532 10.0599L2.44014 11.4247L4.08001 11.1353L5.0353 12.5H6.9647L7.91999 11.1353L9.55986 11.4247L10.9247 10.0599L10.6353 8.41999L12 7.4647V5.5353L10.6353 4.58001L10.9247 2.94014L9.55986 1.57532L7.91999 1.86474L6.9647 0.5H5.0353L4.08001 1.86474ZM5.47286 9.19999L9.33646 5.33639L8.06367 4.0636L4.87507 7.2522L3.93646 6.3136L2.66367 7.58639L4.27728 9.19999H5.47286Z" fill="#00E1C8"/>
</svg>
