<?xml version="1.0" standalone="no"?>
<!DOCTYPE svg PUBLIC "-//W3C//DTD SVG 20010904//EN"
 "http://www.w3.org/TR/2001/REC-SVG-20010904/DTD/svg10.dtd">
<svg version="1.0" xmlns="http://www.w3.org/2000/svg"
 width="258.000000pt" height="80.000000pt" viewBox="0 0 258.000000 80.000000"
 preserveAspectRatio="xMidYMid meet">

<g transform="translate(0.000000,80.000000) scale(0.100000,-0.100000)"
fill="#000000" stroke="none">
<path d="M1254 500 c-31 -12 -54 -49 -54 -88 0 -73 95 -119 151 -73 22 18 23
20 6 27 -10 3 -23 2 -30 -5 -6 -6 -21 -11 -32 -11 -55 0 -76 86 -29 117 24 16
29 16 54 1 28 -16 54 -11 42 8 -19 30 -68 40 -108 24z"/>
<path d="M2190 475 c0 -7 -8 -18 -17 -24 -17 -9 -17 -11 -1 -23 11 -8 18 -30
20 -58 3 -41 6 -45 31 -48 28 -3 38 15 12 24 -19 8 -21 80 -2 88 10 5 10 7 0
12 -7 3 -13 14 -13 25 0 10 -7 19 -15 19 -8 0 -15 -7 -15 -15z"/>
<path d="M1416 436 c-31 -30 -33 -69 -6 -96 60 -60 157 24 103 88 -30 35 -68
38 -97 8z m60 -14 c29 -19 18 -72 -15 -72 -30 0 -46 26 -33 55 12 25 28 31 48
17z"/>
<path d="M1627 453 c-4 -3 -20 -6 -37 -5 l-30 1 0 -65 c0 -50 3 -64 15 -64 11
0 15 12 15 44 0 46 19 72 45 62 11 -4 15 -20 15 -56 0 -38 4 -50 15 -50 12 0
15 13 15 60 0 48 -4 61 -19 70 -23 12 -26 12 -34 3z"/>
<path d="M1780 450 c-8 -5 -25 -7 -37 -3 -22 5 -23 3 -23 -61 0 -52 3 -66 15
-66 11 0 15 12 15 44 0 46 19 72 45 62 11 -4 15 -20 15 -56 0 -38 4 -50 15
-50 12 0 15 13 15 60 0 48 -4 61 -19 70 -24 12 -22 12 -41 0z"/>
<path d="M1920 453 c-41 -15 -55 -87 -22 -116 20 -19 68 -22 92 -7 12 8 12 10
-2 15 -10 4 -22 4 -27 0 -13 -7 -51 12 -51 25 0 6 23 10 50 10 58 0 65 16 25
55 -24 25 -36 28 -65 18z m50 -38 c11 -13 7 -15 -24 -15 -34 0 -44 8 -29 23
11 12 40 8 53 -8z"/>
<path d="M2055 435 c-30 -29 -32 -68 -5 -95 21 -21 65 -26 89 -11 21 14 3 32
-25 25 -26 -7 -54 10 -54 32 0 23 32 46 56 40 33 -9 40 12 9 24 -37 14 -43 13
-70 -15z"/>
</g>
</svg>
