<svg width="50" height="50" viewBox="0 0 50 50" fill="none" xmlns="http://www.w3.org/2000/svg">
<rect width="50" height="50" fill="#00E1C8"/>
<path d="M30.7 27.9C30.7 25.08 28.26 24.34 26.04 23.82V20.42C27.04 20.54 28.08 20.88 29.1 21.46L30.1 19C29 18.3 27.54 17.9 26.04 17.78V15.6H24.04V17.82C20.88 18.18 19.34 20 19.34 22.12C19.34 24.98 21.82 25.72 24.04 26.26V29.6C22.6 29.46 21.16 28.92 20.16 28.18L19.06 30.62C20.16 31.48 22.06 32.1 24.04 32.22V34.4H26.04V32.16C29.18 31.78 30.7 29.98 30.7 27.9ZM22.56 21.96C22.56 21.3 22.98 20.72 24.04 20.48V23.32C23.16 23.04 22.56 22.66 22.56 21.96ZM26.04 29.52V26.76C26.9 27.06 27.48 27.44 27.48 28.14C27.48 28.78 27.04 29.3 26.04 29.52Z" fill="white"/>
</svg>
