<svg width="35" height="24" viewBox="0 0 35 24" fill="none" xmlns="http://www.w3.org/2000/svg">
<rect width="34.7586" height="24" fill="white"/>
<path d="M15.6324 16.1537H13.6246L14.8795 8.41417H16.8875L15.6324 16.1537ZM11.9355 8.41417L10.0213 13.7375L9.7948 12.5912L9.79501 12.5916L9.11941 9.11103C9.11941 9.11103 9.03772 8.41417 8.16696 8.41417H5.00246L4.96533 8.54522C4.96533 8.54522 5.93304 8.74728 7.06558 9.42985L8.80997 16.1539H10.902L14.0964 8.41417H11.9355ZM27.7281 16.1537H29.5717L27.9643 8.41397H26.3503C25.6049 8.41397 25.4234 8.99075 25.4234 8.99075L22.4289 16.1537H24.5219L24.9405 15.0041H27.4929L27.7281 16.1537ZM25.5187 13.416L26.5737 10.5197L27.1672 13.416H25.5187ZM22.5859 10.2754L22.8724 8.61333C22.8724 8.61333 21.9882 8.27588 21.0665 8.27588C20.0701 8.27588 17.704 8.71292 17.704 10.8381C17.704 12.8375 20.4811 12.8624 20.4811 13.9126C20.4811 14.9629 17.9901 14.7747 17.168 14.1124L16.8695 15.8502C16.8695 15.8502 17.7661 16.2873 19.1359 16.2873C20.506 16.2873 22.5731 15.5753 22.5731 13.6375C22.5731 11.6252 19.771 11.4378 19.771 10.5629C19.7712 9.68781 21.7267 9.80023 22.5859 10.2754Z" fill="#016FD0"/>
<path d="M9.79501 12.5914L9.11941 9.1108C9.11941 9.1108 9.03772 8.41394 8.16696 8.41394H5.00246L4.96533 8.54499C4.96533 8.54499 6.48631 8.86133 7.9452 10.0466C9.34014 11.1794 9.79501 12.5914 9.79501 12.5914Z" fill="#F79E1B"/>
</svg>
