<svg width="142" height="19" viewBox="0 0 142 19" fill="none" xmlns="http://www.w3.org/2000/svg">
<path d="M28.6777 5.92139C27.6637 5.92139 26.8985 6.32701 26.4653 7.10136V6.10576H25.3037V12.9644H26.4653V9.39678C26.4653 8.67774 26.6496 8.08775 27.0091 7.6637C27.3687 7.23964 27.8665 7.0184 28.4933 7.0184C29.0188 7.0184 29.4428 7.19355 29.7563 7.53463C30.0605 7.87572 30.2172 8.40118 30.2172 9.10179V12.9736H31.3787V8.88976C31.3787 7.9126 31.1391 7.15667 30.6689 6.66809C30.208 6.17951 29.5074 5.92139 28.6777 5.92139Z" fill="white"/>
<path d="M52.0291 5.92139C50.0287 5.92139 48.4062 7.54385 48.4062 9.54428C48.4062 11.5447 50.0287 13.1672 52.0291 13.1672C54.0296 13.1672 55.652 11.5447 55.652 9.54428C55.652 7.54385 54.0296 5.92139 52.0291 5.92139ZM54.4721 9.53506C54.4721 10.9271 53.3751 12.0609 52.0291 12.0609C50.6832 12.0609 49.5862 10.9271 49.5862 9.53506C49.5862 8.14306 50.6832 7.00918 52.0291 7.00918C53.3751 7.0184 54.4721 8.14306 54.4721 9.53506Z" fill="white"/>
<path d="M20.575 5.92139C18.5746 5.92139 16.9521 7.54385 16.9521 9.54428C16.9521 11.5447 18.5746 13.1672 20.575 13.1672C22.5755 13.1672 24.1979 11.5447 24.1979 9.54428C24.1979 7.54385 22.5755 5.92139 20.575 5.92139ZM23.018 9.53506C23.018 10.9271 21.921 12.0609 20.575 12.0609C19.2291 12.0609 18.1321 10.9271 18.1321 9.53506C18.1321 8.14306 19.2291 7.00918 20.575 7.00918C21.921 7.0184 23.018 8.14306 23.018 9.53506Z" fill="white"/>
<path d="M46.2028 7.06506C45.5482 6.32757 44.6264 5.91274 43.6584 5.91274C41.741 5.91274 40.1738 7.5352 40.1738 9.53563C40.1738 11.5361 41.741 13.1585 43.6584 13.1585C44.6264 13.1585 45.5482 12.7437 46.2028 12.0062V12.9649H47.3643V3.33154H46.2028V7.06506ZM46.1659 9.53563C46.1659 10.9276 45.0689 12.0615 43.723 12.0615C42.3771 12.0615 41.2801 10.9276 41.2801 9.53563C41.2801 8.14363 42.3771 7.00975 43.723 7.00975C45.0781 7.01897 46.1659 8.14363 46.1659 9.53563Z" fill="white"/>
<path d="M38.4397 2.99951C38.2 2.99951 37.988 3.08248 37.8128 3.25763C37.6377 3.43278 37.5547 3.63559 37.5547 3.88449C37.5547 4.13339 37.6377 4.3362 37.8128 4.51135C37.988 4.68651 38.1908 4.76947 38.4397 4.76947C38.6793 4.76947 38.8914 4.68651 39.0665 4.51135C39.2417 4.3362 39.3246 4.13339 39.3246 3.88449C39.3246 3.64481 39.2417 3.43278 39.0665 3.25763C38.8914 3.0917 38.6793 2.99951 38.4397 2.99951Z" fill="white"/>
<path d="M39.0209 6.10645H37.8594V12.9651H39.0209V6.10645Z" fill="white"/>
<path d="M34.5503 6.10621V4.75108C34.5503 4.40999 34.8269 4.14265 35.1588 4.14265H36.5139V3.08252H35.0297C34.1171 3.08252 33.3888 3.82 33.3888 4.72342V6.10621H32.1074V7.18478H33.3888V12.974H34.5503V7.18478H36.5139V6.10621H34.5503Z" fill="white"/>
<path d="M4.8009 8.42019C4.18325 9.52642 4.58887 10.9276 5.6951 11.5361C6.80132 12.1537 8.20255 11.7481 8.81097 10.6419C9.42861 9.53564 9.023 8.13442 7.91677 7.526C6.81976 6.90835 5.41854 7.31397 4.8009 8.42019Z" fill="white"/>
<path d="M3.82432 14.034C3.69526 14.1169 3.5662 14.1999 3.43714 14.2829C3.35417 14.3474 3.33573 14.4672 3.40948 14.541C3.75057 14.9097 4.11931 15.26 4.50649 15.5919C4.91211 15.9422 5.456 16.0713 5.98146 15.9606C6.53457 15.8408 7.07847 15.6841 7.58549 15.4997C8.35063 15.2232 9.08812 14.8821 9.77029 14.4672C9.89935 14.3935 10.0192 14.3105 10.139 14.2368C10.2128 14.1907 10.2036 14.0893 10.139 14.0432C8.26766 12.9093 5.84318 12.8263 3.82432 14.034Z" fill="white"/>
<path d="M8.82074 10.6417C9.43838 9.53546 9.03276 8.13424 7.92654 7.52581C6.82031 6.91739 5.41909 7.31378 4.81066 8.42001C4.19302 9.52624 4.59864 10.9275 5.70486 11.5359C6.81109 12.1535 8.20309 11.7571 8.82074 10.6417Z" fill="white"/>
<path d="M9.79631 5.02721C9.92537 4.94424 10.0544 4.86128 10.1835 4.77831C10.2665 4.71378 10.2849 4.59394 10.2111 4.52019C9.87006 4.15145 9.50132 3.80114 9.11414 3.46928C8.70852 3.11897 8.16463 2.98991 7.63917 3.10053C7.08606 3.22038 6.54216 3.37709 6.03514 3.56146C5.27 3.83802 4.53252 4.1791 3.85034 4.59394C3.72128 4.66769 3.60144 4.75065 3.4816 4.8244C3.40785 4.8705 3.41707 4.9719 3.4816 5.01799C5.35297 6.15188 7.78667 6.23484 9.79631 5.02721Z" fill="white"/>
<path d="M2.31286 6.54746C2.22989 6.4184 2.14692 6.28934 2.06396 6.16028C1.99943 6.07731 1.87959 6.05888 1.80584 6.13263C1.43709 6.47371 1.08679 6.84246 0.754921 7.22963C0.404615 7.63525 0.275556 8.17915 0.386178 8.7046C0.50602 9.25772 0.662735 9.80161 0.847106 10.3086C1.12366 11.0738 1.46475 11.8113 1.87959 12.4934C1.95333 12.6225 2.0363 12.7423 2.11005 12.8622C2.15614 12.9359 2.25755 12.9267 2.30364 12.8622C3.43752 10.9908 3.52049 8.55711 2.31286 6.54746Z" fill="white"/>
<path d="M11.3215 12.5224C11.4045 12.6514 11.4875 12.7805 11.5704 12.9096C11.635 12.9925 11.7548 13.011 11.8285 12.9372C12.1973 12.5961 12.5476 12.2274 12.8795 11.8402C13.2298 11.4346 13.3588 10.8907 13.2482 10.3652C13.1284 9.81213 12.9716 9.26824 12.7873 8.76122C12.5107 7.99608 12.1696 7.25859 11.7548 6.57642C11.681 6.44736 11.5981 6.32751 11.5243 6.20767C11.4782 6.13393 11.3768 6.14314 11.3307 6.20767C10.1876 8.07904 10.1139 10.5035 11.3215 12.5224Z" fill="white"/>
<path opacity="0.5" d="M3.82236 14.0349C3.6933 14.1179 3.56424 14.2009 3.43518 14.2838C3.35222 14.3484 3.33378 14.4682 3.40753 14.542C3.74862 14.9107 4.11736 15.261 4.50454 15.5929C4.91015 15.9432 5.45405 16.0722 5.97951 15.9616C6.53262 15.8418 7.07652 15.6851 7.58354 15.5007C8.34868 15.2241 9.08616 14.883 9.76834 14.4682C9.8974 14.3945 10.0172 14.3115 10.1371 14.2377C10.2108 14.1916 10.2016 14.0902 10.1371 14.0442C8.26571 12.9103 5.84123 12.8273 3.82236 14.0349Z" fill="white"/>
<rect x="65.6523" width="1" height="19" fill="white"/>
<path d="M82.3823 13L80.8723 10.85C80.6857 10.8633 80.539 10.87 80.4323 10.87H78.7023V13H77.7023V6H80.4323C81.339 6 82.0523 6.21667 82.5723 6.65C83.0923 7.08333 83.3523 7.68 83.3523 8.44C83.3523 8.98 83.219 9.44 82.9523 9.82C82.6857 10.2 82.3057 10.4767 81.8123 10.65L83.4723 13H82.3823ZM80.4023 10.02C81.0357 10.02 81.519 9.88333 81.8523 9.61C82.1857 9.33667 82.3523 8.94667 82.3523 8.44C82.3523 7.93333 82.1857 7.54667 81.8523 7.28C81.519 7.00667 81.0357 6.87 80.4023 6.87H78.7023V10.02H80.4023ZM89.618 10.38C89.618 10.4533 89.6113 10.55 89.598 10.67H85.298C85.358 11.1367 85.5613 11.5133 85.908 11.8C86.2613 12.08 86.698 12.22 87.218 12.22C87.8513 12.22 88.3613 12.0067 88.748 11.58L89.278 12.2C89.038 12.48 88.738 12.6933 88.378 12.84C88.0246 12.9867 87.628 13.06 87.188 13.06C86.628 13.06 86.1313 12.9467 85.698 12.72C85.2646 12.4867 84.928 12.1633 84.688 11.75C84.4546 11.3367 84.338 10.87 84.338 10.35C84.338 9.83667 84.4513 9.37333 84.678 8.96C84.9113 8.54667 85.228 8.22667 85.628 8C86.0346 7.76667 86.4913 7.65 86.998 7.65C87.5046 7.65 87.9546 7.76667 88.348 8C88.748 8.22667 89.058 8.54667 89.278 8.96C89.5046 9.37333 89.618 9.84667 89.618 10.38ZM86.998 8.46C86.538 8.46 86.1513 8.6 85.838 8.88C85.5313 9.16 85.3513 9.52667 85.298 9.98H88.698C88.6446 9.53333 88.4613 9.17 88.148 8.89C87.8413 8.60333 87.458 8.46 86.998 8.46ZM92.7345 7.65C93.4679 7.65 94.0279 7.83 94.4145 8.19C94.8079 8.55 95.0045 9.08667 95.0045 9.8V13H94.0945V12.3C93.9345 12.5467 93.7045 12.7367 93.4045 12.87C93.1112 12.9967 92.7612 13.06 92.3545 13.06C91.7612 13.06 91.2845 12.9167 90.9245 12.63C90.5712 12.3433 90.3945 11.9667 90.3945 11.5C90.3945 11.0333 90.5645 10.66 90.9045 10.38C91.2445 10.0933 91.7845 9.95 92.5245 9.95H94.0445V9.76C94.0445 9.34667 93.9245 9.03 93.6845 8.81C93.4445 8.59 93.0912 8.48 92.6245 8.48C92.3112 8.48 92.0045 8.53333 91.7045 8.64C91.4045 8.74 91.1512 8.87667 90.9445 9.05L90.5445 8.33C90.8179 8.11 91.1445 7.94333 91.5245 7.83C91.9045 7.71 92.3079 7.65 92.7345 7.65ZM92.5145 12.32C92.8812 12.32 93.1979 12.24 93.4645 12.08C93.7312 11.9133 93.9245 11.68 94.0445 11.38V10.64H92.5645C91.7512 10.64 91.3445 10.9133 91.3445 11.46C91.3445 11.7267 91.4479 11.9367 91.6545 12.09C91.8612 12.2433 92.1479 12.32 92.5145 12.32ZM96.7811 5.58H97.7411V13H96.7811V5.58ZM102.4 6H103.4V13H102.4V6ZM110.355 5.58V13H109.435V12.16C109.222 12.4533 108.952 12.6767 108.625 12.83C108.299 12.9833 107.939 13.06 107.545 13.06C107.032 13.06 106.572 12.9467 106.165 12.72C105.759 12.4933 105.439 12.1767 105.205 11.77C104.979 11.3567 104.865 10.8833 104.865 10.35C104.865 9.81667 104.979 9.34667 105.205 8.94C105.439 8.53333 105.759 8.21667 106.165 7.99C106.572 7.76333 107.032 7.65 107.545 7.65C107.925 7.65 108.275 7.72333 108.595 7.87C108.915 8.01 109.182 8.22 109.395 8.5V5.58H110.355ZM107.625 12.22C107.959 12.22 108.262 12.1433 108.535 11.99C108.809 11.83 109.022 11.61 109.175 11.33C109.329 11.0433 109.405 10.7167 109.405 10.35C109.405 9.98333 109.329 9.66 109.175 9.38C109.022 9.09333 108.809 8.87333 108.535 8.72C108.262 8.56667 107.959 8.49 107.625 8.49C107.285 8.49 106.979 8.56667 106.705 8.72C106.439 8.87333 106.225 9.09333 106.065 9.38C105.912 9.66 105.835 9.98333 105.835 10.35C105.835 10.7167 105.912 11.0433 106.065 11.33C106.225 11.61 106.439 11.83 106.705 11.99C106.979 12.1433 107.285 12.22 107.625 12.22ZM116.962 10.38C116.962 10.4533 116.955 10.55 116.942 10.67H112.642C112.702 11.1367 112.905 11.5133 113.252 11.8C113.605 12.08 114.042 12.22 114.562 12.22C115.195 12.22 115.705 12.0067 116.092 11.58L116.622 12.2C116.382 12.48 116.082 12.6933 115.722 12.84C115.368 12.9867 114.972 13.06 114.532 13.06C113.972 13.06 113.475 12.9467 113.042 12.72C112.608 12.4867 112.272 12.1633 112.032 11.75C111.798 11.3367 111.682 10.87 111.682 10.35C111.682 9.83667 111.795 9.37333 112.022 8.96C112.255 8.54667 112.572 8.22667 112.972 8C113.378 7.76667 113.835 7.65 114.342 7.65C114.848 7.65 115.298 7.76667 115.692 8C116.092 8.22667 116.402 8.54667 116.622 8.96C116.848 9.37333 116.962 9.84667 116.962 10.38ZM114.342 8.46C113.882 8.46 113.495 8.6 113.182 8.88C112.875 9.16 112.695 9.52667 112.642 9.98H116.042C115.988 9.53333 115.805 9.17 115.492 8.89C115.185 8.60333 114.802 8.46 114.342 8.46ZM121.125 7.65C121.798 7.65 122.331 7.84667 122.725 8.24C123.125 8.62667 123.325 9.19667 123.325 9.95V13H122.365V10.06C122.365 9.54667 122.241 9.16 121.995 8.9C121.748 8.64 121.395 8.51 120.935 8.51C120.415 8.51 120.005 8.66333 119.705 8.97C119.405 9.27 119.255 9.70333 119.255 10.27V13H118.295V7.7H119.215V8.5C119.408 8.22667 119.668 8.01667 119.995 7.87C120.328 7.72333 120.705 7.65 121.125 7.65ZM128.081 12.69C127.941 12.81 127.768 12.9033 127.561 12.97C127.355 13.03 127.141 13.06 126.921 13.06C126.388 13.06 125.975 12.9167 125.681 12.63C125.388 12.3433 125.241 11.9333 125.241 11.4V8.49H124.341V7.7H125.241V6.54H126.201V7.7H127.721V8.49H126.201V11.36C126.201 11.6467 126.271 11.8667 126.411 12.02C126.558 12.1733 126.765 12.25 127.031 12.25C127.325 12.25 127.575 12.1667 127.781 12L128.081 12.69ZM129.242 7.7H130.202V13H129.242V7.7ZM129.722 6.68C129.535 6.68 129.379 6.62 129.252 6.5C129.132 6.38 129.072 6.23333 129.072 6.06C129.072 5.88667 129.132 5.74 129.252 5.62C129.379 5.49333 129.535 5.43 129.722 5.43C129.909 5.43 130.062 5.49 130.182 5.61C130.309 5.72333 130.372 5.86667 130.372 6.04C130.372 6.22 130.309 6.37333 130.182 6.5C130.062 6.62 129.909 6.68 129.722 6.68ZM135.015 12.69C134.875 12.81 134.702 12.9033 134.495 12.97C134.288 13.03 134.075 13.06 133.855 13.06C133.322 13.06 132.908 12.9167 132.615 12.63C132.322 12.3433 132.175 11.9333 132.175 11.4V8.49H131.275V7.7H132.175V6.54H133.135V7.7H134.655V8.49H133.135V11.36C133.135 11.6467 133.205 11.8667 133.345 12.02C133.492 12.1733 133.698 12.25 133.965 12.25C134.258 12.25 134.508 12.1667 134.715 12L135.015 12.69ZM140.768 7.7L138.198 13.53C137.971 14.07 137.705 14.45 137.398 14.67C137.098 14.89 136.735 15 136.308 15C136.048 15 135.795 14.9567 135.548 14.87C135.308 14.79 135.108 14.67 134.948 14.51L135.358 13.79C135.631 14.05 135.948 14.18 136.308 14.18C136.541 14.18 136.735 14.1167 136.888 13.99C137.048 13.87 137.191 13.66 137.318 13.36L137.488 12.99L135.148 7.7H136.148L137.998 11.94L139.828 7.7H140.768Z" fill="white"/>
</svg>
