<svg width="12" height="12" viewBox="0 0 12 12" fill="none" xmlns="http://www.w3.org/2000/svg">
<path d="M5.25 7.5C6.49264 7.5 7.5 6.49264 7.5 5.25C7.5 4.00736 6.49264 3 5.25 3C4.00736 3 3 4.00736 3 5.25C3 6.49264 4.00736 7.5 5.25 7.5Z" fill="white"/>
<path fill-rule="evenodd" clip-rule="evenodd" d="M5.25 10.5C6.42925 10.5 7.51769 10.1112 8.39413 9.45479L10.7197 11.7803L11.7803 10.7197L9.45479 8.39413C10.1112 7.51769 10.5 6.42925 10.5 5.25C10.5 2.35051 8.1495 0 5.25 0C2.35051 0 0 2.35051 0 5.25C0 8.1495 2.35051 10.5 5.25 10.5ZM5.25 9C7.32107 9 9 7.32107 9 5.25C9 3.17893 7.32107 1.5 5.25 1.5C3.17893 1.5 1.5 3.17893 1.5 5.25C1.5 7.32107 3.17893 9 5.25 9Z" fill="white"/>
</svg>
